<?xml version="1.0" standalone="no"?>
<!DOCTYPE svg PUBLIC "-//W3C//DTD SVG 20010904//EN"
 "http://www.w3.org/TR/2001/REC-SVG-20010904/DTD/svg10.dtd">
<svg version="1.0" xmlns="http://www.w3.org/2000/svg"
 width="400.000000pt" height="400.000000pt" viewBox="0 0 400.000000 400.000000"
 preserveAspectRatio="xMidYMid meet">

<g transform="translate(0.000000,400.000000) scale(0.100000,-0.100000)"
fill="#000000" stroke="none">
<path d="M1829 3384 c-109 -19 -233 -67 -330 -126 -111 -68 -249 -206 -317
-317 -119 -195 -167 -440 -128 -659 7 -40 10 -75 7 -76 -3 -2 -42 -10 -86 -17
-72 -11 -83 -16 -114 -50 -21 -24 -52 -44 -82 -54 -27 -9 -52 -21 -55 -27 -11
-17 26 -97 49 -104 12 -4 30 -18 40 -31 19 -23 23 -24 98 -17 78 6 78 6 126
-29 58 -42 62 -43 138 -34 l60 7 90 -88 c273 -268 650 -351 1008 -222 122 45
238 119 342 222 l90 88 60 -7 c76 -9 80 -8 138 34 48 35 48 35 126 29 75 -7
79 -6 98 17 10 13 28 27 40 31 23 7 60 87 49 104 -3 6 -28 18 -55 27 -30 10
-61 30 -82 54 -31 34 -42 39 -114 50 -44 7 -83 15 -86 17 -3 1 0 36 7 76 39
219 -9 464 -128 659 -68 111 -206 249 -317 317 -198 121 -445 168 -672 126z
m340 -109 c338 -71 595 -328 666 -667 18 -81 18 -262 1 -333 l-11 -50 -41 3
c-37 3 -42 1 -48 -21 -3 -14 -9 -32 -12 -41 -5 -12 0 -16 18 -16 13 0 93 -11
177 -25 130 -22 158 -29 185 -52 36 -30 40 -49 11 -47 -11 1 -96 14 -188 30
-145 24 -170 26 -177 14 -13 -21 -2 -28 65 -37 51 -7 60 -11 60 -28 0 -17 -7
-20 -50 -20 -27 1 -81 4 -120 9 l-70 7 -47 -60 -48 -60 46 -7 46 -7 -39 -39
c-56 -58 -193 -146 -280 -180 -308 -120 -669 -49 -901 175 l-43 42 33 7 c18 4
77 10 131 14 103 7 104 8 88 60 -5 16 -12 40 -15 54 l-5 26 -83 -7 c-46 -4
-149 -15 -231 -25 -108 -13 -150 -15 -159 -6 -22 22 0 39 61 46 64 7 75 14 61
36 -7 12 -35 10 -177 -14 -92 -16 -177 -29 -188 -30 -29 -2 -25 17 11 47 27
23 55 30 185 52 85 14 226 32 314 41 233 22 219 19 239 60 9 20 15 39 12 41
-5 5 -302 -22 -401 -36 -33 -5 -63 -6 -66 -2 -29 28 -38 267 -14 379 70 335
326 593 658 666 85 19 260 19 346 1z"/>
<path d="M2010 3026 c-41 -12 -118 -42 -170 -66 -82 -37 -108 -44 -194 -51
-91 -7 -103 -11 -155 -45 -72 -48 -212 -189 -234 -237 -17 -34 -17 -39 -1 -68
21 -42 98 -124 141 -150 30 -19 38 -20 84 -9 28 7 69 9 91 6 42 -7 112 -39
123 -56 3 -5 33 10 66 35 33 24 84 52 112 61 l52 16 0 72 c0 59 5 82 32 136
17 36 34 79 38 96 8 43 48 94 93 121 57 35 102 25 51 -10 -26 -19 -69 -77 -69
-94 0 -9 9 -11 30 -6 40 8 38 -8 -5 -41 -19 -15 -47 -48 -62 -73 -22 -38 -27
-59 -27 -117 l-1 -70 35 -7 c215 -44 356 -53 409 -26 18 9 37 14 42 11 17 -10
-23 -53 -74 -79 -61 -30 -108 -32 -233 -9 -133 25 -248 23 -306 -3 -66 -30
-141 -104 -169 -166 -35 -79 -34 -192 4 -269 31 -62 84 -116 149 -149 59 -31
189 -37 291 -15 315 70 537 350 537 676 0 412 -327 694 -680 586z m-473 -267
c62 -23 48 -52 -34 -69 -61 -13 -79 -5 -68 29 15 48 48 61 102 40z"/>

</g>
</svg>
