<svg xmlns="http://www.w3.org/2000/svg" viewBox="0 0 640 584" height="584" width="640" version="1.1" aria-hidden="true" class="w-[48px] h-[48px] contrast-more:invert contrast-more:grayscale ml-1"><defs><clipPath id="logo-clip" clipPathUnits="userSpaceOnUse"><path d="M 0,438.123 H 480 V 0 H 0 Z"></path></clipPath></defs><g transform="matrix(1.3333333,0,0,-1.3333333,0,584)"><g><g clip-path="url(#logo-clip)"><g transform="translate(240,349.1163)"><path style="fill:#524362;fill-opacity:1;fill-rule:nonzero;stroke:none;" d="m 0,0 c -53.333,31.2 -106.667,-31.2 -160,0 v -180 c 51.816,-30.312 103.632,27.716 155.448,2.431 l 1.086,26.642 c 0.138,2.822 -2.384,5.038 -5.164,4.539 l -36.96,-6.625 5.024,14.857 c 0.476,1.408 0.021,2.964 -1.14,3.892 l -39.668,31.763 6.802,3.369 c 1.498,0.741 2.271,2.43 1.855,4.049 l -6.709,26.1 20.846,-4.985 c 1.643,-0.393 3.335,0.431 4.038,1.967 l 5.421,11.845 18.906,-20.812 c 2.429,-2.673 6.831,-0.414 6.075,3.118 l -9.401,43.917 13.967,-8.425 c 1.736,-1.048 3.995,-0.424 4.948,1.366 L 0,-13.515 14.626,-40.992 c 0.952,-1.79 3.212,-2.414 4.948,-1.366 l 13.967,8.425 -9.401,-43.917 c -0.756,-3.532 3.646,-5.791 6.075,-3.118 l 18.906,20.812 5.421,-11.845 c 0.703,-1.536 2.395,-2.36 4.038,-1.967 l 20.846,4.985 -6.709,-26.1 c -0.416,-1.619 0.357,-3.308 1.855,-4.049 l 6.801,-3.369 -39.668,-31.763 c -1.16,-0.928 -1.615,-2.484 -1.139,-3.892 l 5.024,-14.857 -36.959,6.625 c -2.781,0.499 -5.303,-1.717 -5.165,-4.539 l 1.086,-26.642 C 56.368,-152.284 108.184,-210.312 160,-180 V 0 C 106.666,-31.2 53.334,31.2 0,0 m 0,-240.109 c -53.333,31.2 -106.667,-31.201 -160,0 v -20 c 53.333,-31.201 106.667,31.2 160,0 53.333,31.2 106.667,-31.201 160,0 v 20 c -53.333,-31.201 -106.667,31.2 -160,0 m 0,40 c -53.333,31.2 -106.667,-31.201 -160,0 v -20 c 53.333,-31.201 106.667,31.2 160,0 53.333,31.2 106.667,-31.201 160,0 v 20 c -53.333,-31.201 -106.667,31.2 -160,0"></path></g></g></g></g></svg>