<?xml version="1.0" encoding="UTF-8"?>
<svg id="Layer_1" data-name="Layer 1" xmlns="http://www.w3.org/2000/svg" viewBox="0 0 255.6 211.43">
  <defs>
    <style>
      .cls-1 {
        fill: #fff;
      }

      .cls-1, .cls-2, .cls-3, .cls-4, .cls-5 {
        stroke-width: 0px;
      }

      .cls-2 {
        fill: #ededee;
      }

      .cls-3 {
        fill: #f1f2f2;
      }

      .cls-4 {
        fill: #3e2b56;
      }

      .cls-5 {
        fill: #d3d5d6;
      }
    </style>
  </defs>
  <circle class="cls-4" cx="128.07" cy="106.02" r="105.42"/>
  <path class="cls-5" d="M76.9,169.49c-7.25-2.62-15.45-6.21-24.06-11.2-4.47-2.59-8.52-5.25-12.18-7.87-2.58-1.83-5.4-3.51-6.24-2.73-1.46,1.36,3.61,9.64,8.14,15.32,6.33,7.93,12.98,16.28,21.56,15.42,1.5-.15,7.28-1.01,12.77-8.93h0Z"/>
  <path class="cls-1" d="M115.01,34.73c-.46-1.15-.29-2.46-.48-3.69-.13-.81-.27-2.01-.29-3.5h0s-.82-3.04,0-4.94c.18-.41.48-.55.48-.55.17-.08.34-.08.37-.08.28,0,6.68-1.69,7.74-1.73.24-.01.4.06.44.08.07.03.36.16.59.59.31.58.24,1.21.22,1.4-.02.21-.2,2.2.37,3.76.34.92.67.98.88,1.95.03.15.1.5.08,1.7-.05,2.13-.32,3.22.15,3.47.05.02.17.03.4.03.05,0,.75.02,1.29-.08,1.27-.23,2.36-1.25,2.36-1.25h.85c.73.01,1.11.02,1.51.15.32.1.31.16.59.26.17.06,1.22.41,1.58,0,.11-.13.09-.25.26-.37.18-.13.4-.12.48-.11.69.04,8.3.3,9.18.03.05-.02.28-.09.51,0,.2.08.31.25.33.29.88,1.36,2.29,2.28,3.39,3.47.12.07.29.18.44.37.76.9.32,2.38-.03,3.58-.39,1.29-.84,1.83-1.1,2.1-.53.53-.93.61-1.03.63-.45.08-.68-.36-1.44-.44-.09-.01-.21-.02-.51,0-1.01.05-1.82.25-1.84.26,0,0-1.61.39-11.33.55,0,.09.02.24.08.4.19.57.65.69.81,1.14.11.31.02.59-.03.81-.47,1.77.13,3.25-.66,5.97-.42,1.42-1,2.44-.51,2.95.03.03.18.15.4.22.39.12.64-.05.99-.03.4.01.61.23.92.4,1.01.58,2.44.44,4.02.29.12-.01.36-.03.66.03.54.13.89.48,1.03.63,1.43,1.44,2.13,1.52,3.06,2.99.49.77.81,1.3.7,1.95-.12.68-.63,1.14-.92,1.4-.42.37-.84.55-1.7.92-.9.39-1.35.58-1.55.59-.13,0-.44.01-.63.22-.13.14-.14.33-.15.4-.12,1.58-.41,2.44,0,3.62.06.19.13.34.15.37.29.65.66,1.05.77,1.18.32.37.61.95,1.18,2.1.35.7.63,1.59,1.07,6.93.13,1.65.14,2.01.37,2.66.4,1.16.77,1.22,1.81,3.1.94,1.71,1.16,2.63,1.25,3.28.13.88.03,1.43-.08,1.81-.06.21-.27.91-.85,1.51-.65.67-1.32.77-2.62,1.18-1.72.54-1.76.76-2.8,1.07-3.84,1.15-5.26-1.14-8.67-.18-.52.14-1.81.57-2.69-.03-.25-.17-.49-.44-.74-.74-.5-.59-.81-1.13-.96-1.4-.42-.79-.58-1.44-.88-2.66-.25-.99-.25-1.25-.51-1.81-.35-.72-.57-.75-.85-1.25-.46-.83-.09-1.17-.03-4.13.02-1.16-.03-1.5.11-2.25.06-.34.15-.68.18-1.22.04-.63-.01-1.1-.03-1.33-.11-.99-.15-1.99-.26-2.99-.26-2.36-.39-3.54-.4-4.35-.02-.95-.18-1.9-.08-2.84.07-.58.18-1.05-.11-1.44-.34-.45-1.02-.49-1.4-.51-.25-.02-.87-.05-1.51.33-.23.13-.81.47-.99,1.1-.11.37.01.51.26,1.66.23,1.08.17,1.13.37,1.84s.31.8.48,1.36c.27.91.28,1.65.29,2.18.04,1.7.21,3.39.26,5.09.08,3.06.29,4.2.33,8.08.02,2.05-.03,2.95-.7,3.58-.6.56-1.2.44-3.69.51-2.9.09-4.06.33-6.38.11-.76-.07-1.66-.19-2.58-.74-.53-.31-.98-.72-1.25-.96-.4-.35-.94-.83-1.22-1.29-.66-1.08-.2-2.51,0-3.17.03-.1.24-2.35.66-6.86.5-5.27.74-7.91.63-8.82-.02-.18-.16-1.21.26-2.36.12-.32.54-1.51,1.47-1.77.4-.11.81-.04.81,0,0,.07-1.33.35-2.73.03-.53-.12-.81-.19-1.07-.44-.45-.44-.22-.87-.48-2.25-.21-1.1-.32-1.68-.66-2.4-.18-.38-.33-.59-.26-.88.07-.31.32-.47,1.25-1.03,1.17-.7,1.16-.67,1.25-.77.66-.69,3.74-1.17,5.31-1.18.42,0,.64-.02.7-.15.14-.31-.78-.77-1.07-1.77-.09-.32-.07-.53,0-1.29.32-3.54.15-3.08.29-3.69.16-.67.36-1.24.15-1.95-.08-.27-.16-.54-.37-.7-.68-.55-1.9.7-3.87,1.22-2.43.63-2.85-.66-6.01-.33-.38.04-1.18.14-1.73-.33-.42-.36-.51-.88-.59-1.33-.17-.96.08-1.49.22-2.58.2-1.55-.15-1.68.03-2.32.54-1.88,3.96-2.49,9-3.39.94-.17,2.29-.41,3.58-.44.36-.01,1.03-.01,1.88-.08.72-.06.75-.09,1.07-.08.38.02.62.1.74-.03.15-.17,0-.53-.03-.63h0Z"/>
  <path class="cls-1" d="M44.69,73.91c-.37.36.88,1.68.88,3.74h0s.87,2.21,5.46,7.58c-.8.28-1.27.7-1.53.98-.17.18-.57.62-.44.86.09.17.41.16.76.15.55-.02,1.28-.06,2.14-.12.06.08.14.21.17.39.09.53-.34.96-.37.98-.18.17-.43.28-1.72.32-1.18.03-1.51-.05-1.8.22-.38.35-.3.94-.29.98.07.52.49.91.59.86.12-.06-.18-.66.08-.91.12-.12.32-.1.49-.08,1.47-.73,2.84-.57,3.25.08.34.53.02,1.42-.1,1.77-.12.34-.27.76-.69,1.08-.4.31-.82.38-1.03.39-.15-.15-.34-.38-.44-.69-.12-.36-.08-.63-.15-.64-.09-.01-.28.42-.32.88-.02.28-.09.95.39,1.45.42.43.97.46,1.1.47.91.03,1.49-.7,1.55-.79.03-.2.06-.39.1-.59.06.12.15.31.25.54.44,1.05.41,1.54.76,2.66.31,1,.42.89.47,1.35.01.11.12,1.48-.66,2.04-.79.57-1.99-.05-2.06.17-.06.17.6.63,1.33.79.56.12,1.05.03,1.33-.05.34-.2.67-.39,1.01-.59.09-.49.21-1.02.29-1.01.09,0,.12.58.15,1.33.06,1.62.09,2.43.08,3.07-.02,1.1.69,2.96,3.88,6.27-.32-.86-.63-1.8-.91-2.8-.46-1.64-.76-3.17-.96-4.55.08-2.55.22-5.48.44-5.48.14,0,.25,1.17.37,2.09,0,0,.57,4.25,2.33,8.04,2.89,6.19,8.71,9.23,10.08,9.47.14.02,1.31.2,2.83.61.17.05.4.18.44.12.13-.17-1.92-1.37-2.92-3.12-.53-.91-1-2.4-.57-4.8.04-.84-.02-1.97-.47-3.2-.43-1.17-1.09-2.07-1.06-2.09.04-.02.75.95,1.25,1.75,2.16,3.39,1.79,5.32,3,7.72,2.12,4.21,7.13,5.96,7.7,6.15,1.8.6,4.58.98,6.42,2.24.08.05.36.25.44.17.38-.33-3.38-5.38-3.94-6.13-.12-.16-.18-.57-.35-.47-.03.02,1.61,3.1,4.4,5.76,0,0,1.6,1.51,4.52,2.51.27.09.56.18.64.08.28-.38-2.8-2.59-5.14-5.48-1.13-1.4-2.57-3.54-3.66-6.66,1.7,3.24,3.52,5.63,4.89,7.23,2.44,2.85,4.82,5.56,8.7,6.93.51.18,1.51.5,4.94.84,7.16.7,11,.1,22.57.1h.29c.12-.02,1.27-.29,1.72-1.38.37-.9,0-1.72-.1-1.94-.27-.61-.7-.95-.84-1.06-2.78-2.25-5.15-6.65-11.97-10.18-1.94-1.01-4.89-2.27-8.78-3.02-1.98-.27-5.13-.86-8.68-2.41-4.92-2.14-5.56-3.91-10.3-5.83-5.37-2.17-10.37-2.25-10.33-2.56,0-.06.18-.1,3.42-.22,2.16-.08,2.56-.08,2.61-.25.13-.46-2.53-1.24-6.27-3.39-2.16-1.25-2.03-1.42-4.03-2.48-1.69-.9-3.26-1.72-5.41-2.21-2.14-.5-3.89-.44-3.88-.59,0-.11,1.02-.23,1.94-.22,1,0,1.49.15,1.55,0,.1-.23-.81-.98-1.82-1.45-2.82-1.32-5.87-.27-5.95-.66-.03-.15.37-.4.69-.49.32-.1.52-.02.86,0,.77.05,1.62-.19,2.06-.71.05-.06.32-.37.22-.54-.09-.17-.47-.1-.74-.1-.72.01-.91-.39-1.87-.84-1.57-.72-3.16-.62-3.62-.58,0,0-.23.05-.24.02s.53-.08.91-.42c.27-.24.53-.69.39-.88-.29-.46-2.53.52-2.63.27-.03-.06.11-.13.22-.42.03-.09.17-.46.08-.57-.23-.25-1.43,1.1-2.46.79-.44-.13-.71-.54-1.09-1.1-.47-.7-.65-1.35-.68-1.45-.86-3-4.13-5.37-4.7-5.68-.14-.08-.23-.09-.63-.28-.3-.15-.5-.27-.71-.2-.02,0-.1.03-.16.09h0Z"/>
  <path class="cls-1" d="M178.95,111.97c-.73,1.59-1.91,3.77-3.78,6.05-3.07,3.72-6.37,5.68-7.87,6.49-2.6,1.4-5,2.69-8.31,2.56-1.13-.05-3.65-.18-5.9-1.92-1.64-1.26-2.52-2.9-2.95-3.69-.29-.54-.77-1.51-1.13-2.8-.4-1.43-1.04-3.73-.25-6.25.8-2.54,2.63-4.03,3.49-4.62,1.69-1.17,3.37-1.46,5.04-1.75.91-.16,2.12-.29,3.54-.24,1.77.07,3.25.4,6.41,1.46,6.99,2.35,10.49,3.52,11.61,4.53.24.21,1.12,1.07,2.02.86.18-.04.3-.12.36-.15,2.44-1.43,3.22-1.64,3.23-2.14.01-.48-.7-.82-2.54-1.66-2.65-1.21-3.98-1.81-4.69-2.1-3.31-1.35-2.98-1.38-5.53-2.39-2.43-.96-3.77-1.49-5.58-1.94-1.88-.47-4.87-1.19-8.6-.79-1.96.21-4.43.48-7.03,2.11-4.22,2.65-5.6,6.86-5.9,7.87-1.23,4.11-.2,7.54.25,8.95.38,1.21,1.71,5.22,5.7,8.07.97.69,2.62,1.69,4.87,2.26,3.99,1.02,7.29.03,8.95-.49,2.63-.83,4.39-2.02,6.39-3.39,2.64-1.8,4.4-3.56,5.21-4.43,2.34-2.48,4.08-5.14,3.88-5.31-.08-.06-.62.36-1.72,1.23-.9.7-1.2,1-1.28.94-.14-.12.6-1.24,1.38-2.41,1.13-1.69,2.38-3.47,2.65-3.86.01-.02.05-.07.09-.13.01-.02.05-.06.06-.09.04-.06.14-.2.22-.31"/>
  <path class="cls-1" d="M184.65,109.12c.87-1.37,2.11-3.16,3.74-5.11,1.7-2.05,4.16-4.67,7.52-7.33,3.56-2.81,5.35-4.22,7.87-4.82,1.17-.28,5.19-1.24,8.95,1.03,3.61,2.19,4.65,5.96,5.17,7.82,1.09,3.96.27,7.23-.05,8.46-.36,1.39-1.2,4.4-3.88,7.13-3.16,3.21-6.89,4.01-8.21,4.23-2.33.38-5.03-.46-10.42-2.06-2.14-.64-5.68-1.81-9.93-3.74-1.99-.9-3.63-1.74-4.81-2.37.07-.88.32-3.32,1.27-3.52.34-.07.59.17,2.84,1.31l.49.24s.09.06.16.11c0,0,.8.54,1.63,1.03,1.72,1,3.94,1.87,3.94,1.87,3.97,1.56,5.95,2.33,7.62,2.7,2.35.52,3.96.87,6.15.59,1.09-.14,3.7-.51,6.19-2.51.85-.68,2.76-2.4,3.74-5.26.68-1.98.62-3.65.57-4.8-.04-.94-.12-2.49-.86-4.3-.32-.78-.72-1.75-1.62-2.74-1.21-1.33-2.56-1.88-3.29-2.18-.16-.06-1.46-.57-2.92-.66-.9-.06-1.72.05-2.54.27-1.31.36-2.58,1.03-4.08,1.83-1.63.86-3.01,1.85-3.58,2.26-.6.43-1.09.81-1.44,1.1-1.25.98-2.98,2.44-4.67,4.25-1.13,1.2-1.88,2.17-2.42,2.87-.5.64-.78,1.05-1.06,1.51-.51.86-.84,1.62-1.05,2.18-.13.19-.32.4-.57.6-.88.69-1.93.62-2.26.59"/>
  <path class="cls-3" d="M113.44,182.82c.49-6.69,7.78-10.64,8.27-10.9,2.15-1.13,3.57-1.23,12.67-1.67,12.93-.62,14.43-.63,17.82-1.06,6.24-.79,9.36-1.19,13.22-2.73,5.8-2.31,7.56-4.72,15.6-8.03,1.51-.62,1.44-.54,6.83-2.42,8.87-3.11,18.02-5.39,26.73-8.93,2.77-1.13,5.04-2.15,5.94-1.21.99,1.04-.21,3.95-2.97,8.93-6.68,12.06-13.6,20.25-14.41,21.2-2.83,3.31-6.73,7.64-11.71,12.45-4.17,1.06-10.4,2.62-17.99,4.36-37.95,8.69-46,7.38-51.83,3.33-1.13-.79-8.69-6.2-8.17-13.33h0Z"/>
  <path class="cls-2" d="M39.48,157.99c2.44-.38,6.11-.88,10.57-1.21,4.44-.32,23.35-1.47,55.6,7.42,10.71,2.95,24.97,7.59,41.25,14.99,15.31,1.87,30.62,3.73,45.93,5.6.77-.08,1.65-.08,1.81.3.72,1.69-13.63,9.23-14.5,9.69-8.14,4.26-18.24,9.54-32.94,12.26-4.81.9-14.39,2.3-26.44,1.36-24.4-1.9-41.81-12.1-48.2-16.2-15.86-10.18-25.49-22.48-30.67-30.28"/>
</svg>